<svg data-v-0dd9719b="" version="1.0" xmlns="http://www.w3.org/2000/svg" xmlns:xlink="http://www.w3.org/1999/xlink" width="100%" height="100%" viewBox="0 0 340.000000 250.000000" preserveAspectRatio="xMidYMid meet" color-interpolation-filters="sRGB" style="margin: auto;"> <rect data-v-0dd9719b="" x="0" y="0" width="100%" height="100%" fill="#fff" fill-opacity="1" class="background"></rect> <rect data-v-0dd9719b="" x="0" y="0" width="100%" height="100%" fill="url(#watermark)" fill-opacity="1" class="watermarklayer"></rect> <g data-v-0dd9719b="" fill="#333" class="icon-text-wrapper icon-svg-group iconsvg" transform="translate(73.38494873046875,95.63631248474121)"><g class="iconsvg-imagesvg" transform="translate(0,0)"><g><rect fill="#333" fill-opacity="0" stroke-width="2" x="0" y="0" width="60" height="58.727377724705626" class="image-rect"></rect> <svg x="0" y="0" width="60" height="58.727377724705626" filtersec="colorsb360526241" class="image-svg-svg primary" style="overflow: visible;"><svg xmlns="http://www.w3.org/2000/svg" viewBox="0.00020585954189300537 -0.007500000298023224 167.75979614257812 164.20199584960938"><path d="M141.49 164c-.21.35-.41.15-.61 0a.7.7 0 0 0-.57-.17c0-.34-.22-.44-.45-.57-6.07-3.58-12.14-7.18-18.22-10.75q-10.28-6-20.57-12.07c-6.28-3.69-12.54-7.41-18.81-11.11l-20.4-12c-5.36-3.15-10.73-6.28-16.07-9.46a27 27 0 0 1-4-2.5c1.29.12 2.58.22 3.87.36l16.82 1.84 12 1.31 16.38 1.79c3.94.43 7.88.84 11.82 1.28l16.55 1.83 14 1.52 8.53.88.09.16c0 .29-.06.58-.07.86-.08 4.43-.07 8.85-.12 13.27-.13 10.9 0 21.8-.22 32.71a1.29 1.29 0 0 0 .05.82z" fill="#f7921f"></path><path d="M.06 81.47c-.2-.29.16-.3.23-.45s.31 0 .33-.25c.22.08.38-.07.56-.17l14.72-8.36 37.88-21.53Q73.37 39.58 93 28.46c2.49-1.41 4.93-2.91 7.5-4.18-2.09 2.88-4.16 5.77-6.26 8.64Q80.88 51.22 67.51 69.5l-26 35.61-.24.21a2.38 2.38 0 0 0-.82-.62c-3.34-1.93-6.69-3.85-10-5.79-3-1.72-5.87-3.53-8.88-5.19-3.35-1.84-6.64-3.81-10-5.7S5.23 84.29 2 82.46a5.8 5.8 0 0 0-1.94-.99z" fill="#2f3192"></path><path d="M142.59.14c.31 0 .35.25.3.5a1.39 1.39 0 0 0-.14.85c-.05 3.61 0 7.22-.12 10.84-.15 5.55 0 11.11-.16 16.66-.16 6.88 0 13.77-.19 20.66-.17 7.25 0 14.52-.18 21.78-.16 6.13 0 12.26-.16 18.39-.16 7-.14 14.06-.2 21.09 0 1.25 0 2.49-.05 3.73-.12-.22-.27-.43-.37-.66L122.09 71Q111.56 47.43 101 23.87v-.25c.33-.16.68-.29 1-.48 2.79-1.57 5.57-3.16 8.36-4.74q6.51-3.7 13-7.38l12.9-7.28c2.2-1.18 4.26-2.4 6.33-3.6zM41.29 105.32l.24-.21.25.25a27 27 0 0 0 4 2.5c5.34 3.18 10.71 6.31 16.07 9.46l20.4 12c6.27 3.7 12.53 7.42 18.81 11.11q10.28 6 20.57 12.07c6.08 3.57 12.15 7.17 18.22 10.75.23.13.49.23.45.57-2.94-1-5.89-1.87-8.83-2.83l-32.1-10.47-25.9-8.47q-20.27-6.6-40.57-13.23c-2.28-.75-4.59-1.39-6.81-2.3a2.32 2.32 0 0 1 .18-.39c3.41-4.71 6.85-9.39 10.24-14.11 1.6-2.23 3.32-4.36 4.78-6.7z" fill="#ad272d"></path><path d="M141.69 114.64c0-1.24 0-2.48.05-3.73.06-7 0-14.06.2-21.09.13-6.13 0-12.26.16-18.39.19-7.26 0-14.53.18-21.78.17-6.89 0-13.78.19-20.66.13-5.55 0-11.11.16-16.66.1-3.62.07-7.23.12-10.84a1.39 1.39 0 0 1 .14-.85c1.2 5.66 2.42 11.32 3.61 17q2.24 10.56 4.5 21.13 2.94 14.06 5.9 28.12Q159.39 79 162 91.1l4.92 23.44a28.42 28.42 0 0 1 .84 4.49c-1.06-.13-2.12-.26-3.18-.37-3.65-.37-7.3-.7-10.94-1.11-3.93-.44-7.86-.9-11.8-1.22l-.09-.16z" fill="#1c1564"></path><path d="M101.07 23.62v.25l-.55.41c-2.57 1.27-5 2.77-7.5 4.18Q73.37 39.57 53.78 50.71 34.83 61.48 15.89 72.25L1.17 80.61c-.18.1-.34.25-.56.17a5.1 5.1 0 0 1 1.33-1.33q5.85-5.3 11.72-10.57 8.88-8 17.78-15.92L57 30 81.39 8.09 89.92.45c.15-.13.26-.32.5-.31Q92.69 5.27 95 10.39c1.64 3.69 3.27 7.38 4.94 11.05a7.88 7.88 0 0 0 1.13 2.18z" fill="#d8df22"></path><path d="M41.29 105.32c-1.46 2.34-3.18 4.47-4.78 6.7-3.39 4.72-6.83 9.4-10.24 14.11a2.32 2.32 0 0 0-.18.39c-.29-.08-.37-.35-.5-.57L.82 82.91a4.16 4.16 0 0 1-.76-1.44 5.8 5.8 0 0 1 2 1C5.23 84.29 8.39 86.2 11.6 88s6.61 3.86 10 5.7c3 1.66 5.92 3.47 8.88 5.19 3.34 1.94 6.69 3.86 10 5.79a2.38 2.38 0 0 1 .81.64z" fill="#1c1564"></path><path d="M141.79 116.33c3.94.32 7.87.78 11.8 1.22 3.64.41 7.29.74 10.94 1.11 1.06.11 2.12.24 3.18.37-1 2-2.18 3.88-3.3 5.8q-11.28 19.39-22.61 38.77a4 4 0 0 1-.31.41 1.29 1.29 0 0 1-.11-.84c.17-10.91.09-21.81.22-32.71.05-4.42 0-8.84.12-13.27.01-.28.05-.57.07-.86z" fill="#ad272d"></path><path d="M101.07 23.62a7.88 7.88 0 0 1-1.16-2.18c-1.67-3.67-3.3-7.36-4.94-11L90.42.14c.25-.21.55-.12.83-.12h50.51c.28 0 .58-.11.83.11-2.07 1.2-4.13 2.42-6.21 3.6L123.48 11q-6.53 3.68-13 7.38c-2.79 1.58-5.57 3.17-8.36 4.74-.37.21-.72.34-1.05.5z" fill="#f7921f"></path><path d="M140.31 163.83a.7.7 0 0 1 .57.17.66.66 0 0 1-.57-.17z" fill="#ad272d"></path><path d="M.62 80.77C.6 81 .44 81 .29 81a.3.3 0 0 1 .33-.23z" fill="#d8df22"></path></svg></svg> <!----></g></g> <g transform="translate(67,6.087865829467773)"><g data-gra="path-name" fill-rule="" class="tp-name iconsvg-namesvg"><g transform="scale(1)"><g><path d="M2.46-7.86Q3.11-3.77 6.21-1.68 9.3 0.41 13.8 0.41L13.8 0.41Q16.51 0.41 18.8-0.76 21.09-1.93 22.69-3.79 24.29-5.65 24.29-8.19L24.29-8.19Q24.29-11.06 22.57-12.72 20.85-14.38 18.82-15.11 16.79-15.85 13.23-16.71L13.23-16.71 12.41-16.96Q9.79-17.61 8.25-18.49 6.72-19.37 6.72-21.18L6.72-21.18Q6.72-23.47 8.6-24.57 10.49-25.68 13.07-25.68L13.07-25.68Q19.13-24.86 20.32-20.68L20.32-20.68 22.98-21.5Q22.53-25.03 19.72-27.05 16.92-29.08 12.9-29.08L12.9-29.08Q6.23-29.08 4.57-27.11 2.91-25.15 2.91-21.01L2.91-21.01Q2.91-18.55 4.4-17.02 5.9-15.48 7.68-14.72 9.46-13.97 12.37-13.15L12.37-13.15Q12.9-12.98 13.39-12.94L13.39-12.94Q15.48-12.49 16.94-12 18.39-11.51 19.45-10.55 20.52-9.58 20.52-8.03L20.52-8.03Q20.52-5.57 18.47-4.4 16.42-3.24 13.64-3.24L13.64-3.24Q10.94-3.24 8.4-4.75 5.86-6.27 5.12-8.68L5.12-8.68 2.46-7.86ZM29.49 0.04L32.36-8.64 45.05-8.64 48.08 0.04 52.02 0.04 40.51-28.63 36.29-28.63 25.39 0.04 29.49 0.04ZM38.66-25.11L43.95-11.71 33.38-11.71 38.66-25.11ZM64.71-14.21L71.02-14.25Q73.15-14.29 77.16-14.29L77.16-14.29 77.16-11.02Q77.16-8.36 75.63-5.71 74.09-3.07 71.39-1.37 68.69 0.33 65.29 0.33L65.29 0.33Q61.23 0.33 58.36-1.76 55.5-3.85 54.04-7.23 52.59-10.61 52.59-14.42L52.59-14.42Q52.59-18.1 54-21.34 55.42-24.57 58.2-26.52 60.99-28.47 64.88-28.34L64.88-28.34Q73.6-28.34 76.84-20.07L76.84-20.07 73.64-19.25Q72.58-20.93 71.35-22.24 70.12-23.55 68.67-24.19 67.21-24.82 64.88-24.82L64.88-24.82Q62.26-24.82 60.33-23.26 58.41-21.71 57.61-19.19 56.81-16.67 56.81-13.84L56.81-13.84Q56.81-11.06 57.61-8.6 58.41-6.14 60.47-4.65 62.54-3.15 65.53-3.15L65.53-3.15Q68.85-3.15 71-5.3 73.15-7.45 73.81-10.98L73.81-10.98 64.71-10.98 64.71-14.21ZM101.53 0Q101.78 0 101.96-0.18 102.15-0.37 102.15-0.61L102.15-0.61 102.15-3.4 85.85-3.4 85.85-13.15 100.67-13.15Q100.92-13.15 101.1-13.33 101.29-13.52 101.29-13.76L101.29-13.76 101.29-16.51 85.85-16.51 85.77-25.31 100.88-25.31Q101.12-25.31 101.31-25.5 101.49-25.68 101.49-25.93L101.49-25.93 101.49-28.67 81.67-28.67 81.67 0 101.53 0ZM111.45-25.27L118.04-25.27Q121.19-25.27 122.87-24.27 124.55-23.26 124.55-20.32L124.55-20.32Q124.55-17.45 122.87-16.4 121.19-15.36 118.04-15.36L118.04-15.36 111.45-15.36 111.45-25.27ZM120.78-12.29Q128.69-13.19 128.69-20.32L128.69-20.32Q128.69-25.11 125.7-26.87L125.7-26.87Q122.67-28.67 117.71-28.67L117.71-28.67 107.47-28.67 107.47 0 110.83 0Q111.08 0 111.26-0.18 111.45-0.37 111.45-0.61L111.45-0.61 111.45-12.12 116.85-12.12 124.18 0 128.28 0 120.78-12.29Z" transform="translate(-2.4600000381469727, 29.079999923706055)"></path></g> <!----> <!----> <!----> <!----> <!----> <!----> <g data-gra="path-name-1" fill="#333" transform="translate(0,32.489999771118164)"><g transform="scale(0.98402)"><path d="M10.62 0Q10.74 0 10.83-0.09 10.91-0.18 10.91-0.3L10.91-0.3 10.91-1.65 3.02-1.65 3.02-6.37 10.2-6.37Q10.32-6.37 10.41-6.46 10.5-6.55 10.5-6.67L10.5-6.67 10.5-8 3.02-8 2.98-12.26 10.3-12.26Q10.42-12.26 10.51-12.35 10.6-12.44 10.6-12.56L10.6-12.56 10.6-13.89 0.99-13.89 0.99 0 10.62 0ZM21.53 0Q21.65 0 21.74-0.09 21.83-0.18 21.83-0.3L21.83-0.3 21.83-1.57 14.92-1.57 14.92-13.89 12.9-13.89 12.9 0 21.53 0ZM34.43 0Q34.55 0 34.64-0.09 34.73-0.18 34.73-0.3L34.73-0.3 34.73-1.65 26.83-1.65 26.83-6.37 34.01-6.37Q34.13-6.37 34.22-6.46 34.31-6.55 34.31-6.67L34.31-6.67 34.31-8 26.83-8 26.79-12.26 34.11-12.26Q34.23-12.26 34.32-12.35 34.41-12.44 34.41-12.56L34.41-12.56 34.41-13.89 24.81-13.89 24.81 0 34.43 0ZM46.57-4.35Q46.12-3.12 44.98-2.25 43.84-1.39 42.51-1.39L42.51-1.39Q41-1.39 40.02-2.2 39.03-3.02 38.7-4.26 38.36-5.5 38.36-6.87L38.36-6.87Q38.36-8.33 38.77-9.56 39.17-10.78 40.15-11.51 41.12-12.24 42.45-12.24L42.45-12.24Q43.82-12.24 44.85-11.53 45.88-10.82 46.34-9.82L46.34-9.82 47.88-10.22Q47.03-12.05 45.73-12.9 44.43-13.75 42.27-13.75L42.27-13.75Q40.48-13.75 39.13-12.82 37.78-11.89 37.05-10.29 36.32-8.69 36.32-6.75L36.32-6.75Q36.32-4.82 37.03-3.26 37.74-1.71 39.17-0.78 40.6 0.14 42.65 0.14L42.65 0.14Q44.69 0.14 46.1-0.92 47.51-1.98 48.1-3.95L48.1-3.95 46.57-4.35ZM54.71 0Q54.83 0 54.92-0.09 55.01-0.18 55.01-0.3L55.01-0.3 55.01-12.24 58.5-12.24Q58.62-12.24 58.71-12.33 58.8-12.42 58.8-12.54L58.8-12.54 58.8-13.89 49.29-13.89 49.29-12.24 53.06-12.24 53.06 0 54.71 0ZM63.1-12.24L66.3-12.24Q67.83-12.24 68.64-11.76 69.46-11.27 69.46-9.84L69.46-9.84Q69.46-8.45 68.64-7.95 67.83-7.44 66.3-7.44L66.3-7.44 63.1-7.44 63.1-12.24ZM67.63-5.95Q71.46-6.39 71.46-9.84L71.46-9.84Q71.46-12.16 70.01-13.02L70.01-13.02Q68.54-13.89 66.14-13.89L66.14-13.89 61.18-13.89 61.18 0 62.81 0Q62.93 0 63.02-0.09 63.1-0.18 63.1-0.3L63.1-0.3 63.1-5.87 65.72-5.87 69.28 0 71.26 0 67.63-5.95ZM72.69-6.79Q72.69-4.9 73.41-3.35 74.14-1.81 75.49-0.9 76.84 0 78.64 0L78.64 0Q80.49 0 81.84-0.92 83.19-1.85 83.89-3.43 84.6-5.02 84.6-6.95L84.6-6.95Q84.6-8.85 83.9-10.43 83.21-12.01 81.87-12.95 80.53-13.89 78.64-13.89L78.64-13.89Q76.72-13.89 75.38-12.95 74.04-12.01 73.36-10.39 72.69-8.77 72.69-6.79L72.69-6.79ZM74.54-6.71Q74.54-9.11 75.49-10.72 76.44-12.32 78.64-12.32L78.64-12.32Q80.07-12.32 81.01-11.58 81.96-10.83 82.31-9.61 82.67-8.39 82.67-6.95L82.67-6.95Q82.67-5.46 82.31-4.23 81.96-3 81.01-2.24 80.07-1.49 78.64-1.49L78.64-1.49Q77.25-1.49 76.28-2.2 75.31-2.92 74.92-4.11 74.54-5.3 74.54-6.71L74.54-6.71ZM88.62 0Q88.74 0 88.83-0.09 88.92-0.18 88.92-0.3L88.92-0.3 89-10.76 95.83 0 97.36 0Q97.48 0 97.56-0.09 97.65-0.18 97.65-0.3L97.65-0.3 97.65-13.89 95.63-13.89 95.63-3.06 88.8-13.89 86.98-13.89 86.98 0 88.62 0ZM103.21-13.89L101.25-13.89 101.25 0 102.91 0Q103.03 0 103.12-0.09 103.21-0.18 103.21-0.3L103.21-0.3 103.21-13.89ZM115.57-4.35Q115.12-3.12 113.98-2.25 112.83-1.39 111.51-1.39L111.51-1.39Q110-1.39 109.01-2.2 108.03-3.02 107.7-4.26 107.36-5.5 107.36-6.87L107.36-6.87Q107.36-8.33 107.76-9.56 108.17-10.78 109.14-11.51 110.12-12.24 111.45-12.24L111.45-12.24Q112.81-12.24 113.85-11.53 114.88-10.82 115.34-9.82L115.34-9.82 116.88-10.22Q116.03-12.05 114.73-12.9 113.43-13.75 111.27-13.75L111.27-13.75Q109.48-13.75 108.13-12.82 106.78-11.89 106.05-10.29 105.31-8.69 105.31-6.75L105.31-6.75Q105.31-4.82 106.03-3.26 106.74-1.71 108.17-0.78 109.6 0.14 111.64 0.14L111.64 0.14Q113.69 0.14 115.1-0.92 116.51-1.98 117.1-3.95L117.1-3.95 115.57-4.35ZM118.69-3.81Q119.01-1.83 120.5-0.81 122 0.2 124.19 0.2L124.19 0.2Q125.5 0.2 126.61-0.37 127.72-0.93 128.49-1.84 129.27-2.74 129.27-3.97L129.27-3.97Q129.27-5.36 128.43-6.16 127.6-6.97 126.62-7.32 125.63-7.68 123.91-8.1L123.91-8.1 123.51-8.22Q122.24-8.53 121.5-8.96 120.75-9.39 120.75-10.26L120.75-10.26Q120.75-11.37 121.67-11.91 122.58-12.44 123.83-12.44L123.83-12.44Q126.77-12.05 127.34-10.02L127.34-10.02 128.63-10.42Q128.41-12.12 127.05-13.11 125.69-14.09 123.75-14.09L123.75-14.09Q120.51-14.09 119.71-13.14 118.91-12.18 118.91-10.18L118.91-10.18Q118.91-8.99 119.63-8.25 120.36-7.5 121.22-7.13 122.08-6.77 123.49-6.37L123.49-6.37Q123.75-6.29 123.99-6.27L123.99-6.27Q125-6.05 125.7-5.81 126.41-5.58 126.92-5.11 127.44-4.64 127.44-3.89L127.44-3.89Q127.44-2.7 126.45-2.13 125.46-1.57 124.11-1.57L124.11-1.57Q122.8-1.57 121.57-2.3 120.34-3.04 119.98-4.21L119.98-4.21 118.69-3.81Z" transform="translate(-0.9900000095367432, 14.09000015258789)"></path></g></g></g></g> <!----></g></g><defs v-gra="od"></defs></svg>